<svg width="17" height="17" viewBox="0 0 17 17" fill="none" xmlns="http://www.w3.org/2000/svg">
<g clip-path="url(#clip0_602_1741)">
<g clip-path="url(#clip1_602_1741)">
<path fill-rule="evenodd" clip-rule="evenodd" d="M16.8625 8.01953C16.8625 12.4378 13.2808 16.0195 8.86249 16.0195C4.44421 16.0195 0.862488 12.4378 0.862488 8.01953C0.862488 3.60125 4.44421 0.0195312 8.86249 0.0195312C13.2808 0.0195312 16.8625 3.60125 16.8625 8.01953ZM9.86249 4.01953C9.86249 4.57181 9.41477 5.01953 8.86249 5.01953C8.31021 5.01953 7.86249 4.57181 7.86249 4.01953C7.86249 3.46725 8.31021 3.01953 8.86249 3.01953C9.41477 3.01953 9.86249 3.46725 9.86249 4.01953ZM7.86249 7.01953C7.31021 7.01953 6.86249 7.46725 6.86249 8.01953C6.86249 8.57182 7.31021 9.01953 7.86249 9.01953V12.0195C7.86249 12.5718 8.31021 13.0195 8.86249 13.0195H9.86249C10.4148 13.0195 10.8625 12.5718 10.8625 12.0195C10.8625 11.4672 10.4148 11.0195 9.86249 11.0195V8.01953C9.86249 7.46725 9.41477 7.01953 8.86249 7.01953H7.86249Z" fill="#F9F6E0"/>
</g>
</g>
<defs>
<clipPath id="clip0_602_1741">
<rect width="16" height="16" fill="white" transform="translate(0.862488 0.0195312)"/>
</clipPath>
<clipPath id="clip1_602_1741">
<rect width="16" height="16" fill="white" transform="translate(0.862488 0.0195312)"/>
</clipPath>
</defs>
</svg>
