<svg width="50" height="52" viewBox="0 0 50 52" fill="none" xmlns="http://www.w3.org/2000/svg">
<path fill-rule="evenodd" clip-rule="evenodd" d="M20.7968 0.110656C18.3208 0.528531 16.0129 1.91953 14.4762 3.92028C12.4043 6.61803 11.7307 10.1959 12.6387 13.6817C13.3068 16.247 15.3159 19.5074 17.5242 21.6099C19.0281 23.0418 20.3784 23.6037 22.3229 23.6063C25.0234 23.61 26.7821 22.5029 29.2131 19.2684C31.4822 16.2495 32.4377 13.6457 32.4413 10.4715C32.4433 8.72028 32.1779 7.55116 31.4097 5.92503C30.5453 4.09566 29.4496 2.79616 27.8082 1.65391C25.9528 0.362656 23.0673 -0.272469 20.7968 0.110656ZM37.6929 3.23278C37.5554 3.37028 37.4429 3.59766 37.4429 3.73816C37.4429 4.05153 38.5231 5.23278 38.8097 5.23278C38.9238 5.23278 39.2232 5.02191 39.4748 4.76403L39.9326 4.29528L39.4321 3.63903C38.9771 3.04241 38.8867 2.98278 38.4372 2.98278C38.1096 2.98278 37.8587 3.06703 37.6929 3.23278ZM44.8338 3.54253C44.5501 3.85028 44.3179 4.13528 44.3179 4.17566C44.3179 4.53741 44.9832 5.22528 45.3376 5.23003C45.4516 5.23153 45.8044 4.94391 46.1219 4.59091C46.7448 3.89803 46.7789 3.62153 46.2932 3.20153C45.8508 2.81903 45.4046 2.92328 44.8338 3.54253ZM40.8804 5.62866C39.2276 6.25078 38.1924 8.04141 38.5534 9.65428C38.7437 10.5044 39.2858 11.3653 39.8508 11.7144L40.2889 11.9853L40.2247 12.7859C40.1657 13.5208 40.1866 13.6128 40.4788 13.905C40.7782 14.2044 40.8703 14.2229 42.0263 14.215C43.7264 14.2034 43.8179 14.135 43.8179 12.8758V11.8997L44.2833 11.5975C44.9979 11.1334 45.5079 10.038 45.4966 8.99141C45.4817 7.62053 44.8818 6.57966 43.7076 5.88753C43.2737 5.63178 42.9614 5.55653 42.2076 5.52603C41.6839 5.50491 41.0867 5.55103 40.8804 5.62866ZM35.5367 9.08178L34.5679 9.11828V9.78716C34.5679 10.5939 34.5924 10.6078 36.0157 10.6078H37.0679V9.87241C37.0679 9.01328 37.0874 9.02341 35.5367 9.08178ZM47.0929 9.13278C47.0104 9.21528 46.9429 9.58091 46.9429 9.94528V10.6078H48.1336C49.3034 10.6078 49.3263 10.602 49.4488 10.2799C49.6338 9.79341 49.4753 9.14578 49.1499 9.05853C48.6598 8.92703 47.2477 8.97803 47.0929 9.13278ZM38.1682 14.9569C37.5428 15.5999 37.4844 15.7055 37.5764 16.0274C37.7066 16.4828 38.0446 16.8578 38.3248 16.8578C38.5989 16.8578 39.8216 15.5352 39.8073 15.2539C39.8016 15.1392 39.5864 14.8649 39.3293 14.6444L38.8619 14.2435L38.1682 14.9569ZM44.5902 14.8977L44.0603 15.4375L44.8048 16.1477C45.2143 16.5382 45.6078 16.8578 45.6793 16.8578C45.9126 16.8578 46.6929 16.0877 46.6929 15.8574C46.6929 15.6512 45.4129 14.3578 45.2089 14.3578C45.1599 14.3578 44.8816 14.6007 44.5902 14.8977ZM40.8492 14.9179C40.8492 15.2979 41.0203 15.4515 41.5024 15.5047C41.7791 15.535 41.8832 15.4882 41.9182 15.3173C41.9846 14.9927 41.5892 14.6078 41.1892 14.6078C40.9106 14.6078 40.8492 14.6638 40.8492 14.9179ZM42.5248 14.8364C42.1038 15.3017 42.3036 15.6863 42.8258 15.4162C43.2793 15.1817 43.3756 15.0153 43.1884 14.7898C42.9858 14.5457 42.7744 14.5605 42.5248 14.8364ZM15.5008 23.4663C15.4967 24.96 15.4631 25.233 15.2287 25.6787C14.8589 26.3814 14.6486 26.5285 14.1333 26.4449C13.5669 26.353 11.3032 26.654 10.0896 26.9825C4.06068 28.6147 0.817932 32.0249 0.817932 36.7328C0.817932 38.726 1.31431 40.2415 2.52793 41.9533C3.75106 43.6784 4.96318 44.3737 10.9429 46.7799C12.9023 47.5684 16.2429 48.9155 18.3666 49.7737L22.2278 51.3338L26.6791 49.548C37.1332 45.3542 38.3436 44.8439 39.5839 44.1069C43.4486 41.811 44.8306 36.5185 42.6118 32.5114C40.7681 29.1817 36.5776 26.9874 30.8979 26.3777C30.2628 26.3095 29.7158 26.1843 29.6156 26.084C29.3669 25.8353 29.0679 24.1362 29.0679 22.9718C29.0679 22.4278 29.0258 21.9842 28.9742 21.9858C28.9226 21.9874 28.4304 22.3834 27.8804 22.8657C25.2281 25.1912 21.9496 25.6989 18.9117 24.2545C17.8433 23.7465 17.4693 23.4879 16.2356 22.4038L15.5054 21.7623L15.5008 23.4663ZM23.6016 28.014C22.9916 28.7187 21.5032 30.4765 20.2938 31.9203C19.0846 33.364 17.5833 35.1359 16.9578 35.8578C16.3322 36.5797 15.7832 37.3065 15.7377 37.4729C15.6088 37.9449 16.1391 38.2942 17.7273 38.7834C18.4991 39.0212 19.6648 39.3795 20.3179 39.5799C21.1586 39.8377 21.4927 39.9954 21.4619 40.1197C21.4381 40.2163 21.1157 41.5002 20.7454 42.9727C20.2656 44.8814 20.1097 45.695 20.2024 45.8067C20.4284 46.079 21.0259 46.2302 21.2296 46.0665C21.4096 45.9219 22.6473 44.5064 25.4563 41.2328C26.2528 40.3047 27.3349 39.0764 27.8612 38.5035C28.8324 37.4459 28.9751 37.1205 28.6579 36.6867C28.5273 36.508 25.7283 35.2619 24.9117 35.0188C24.7914 34.9829 24.6929 34.9095 24.6929 34.8557C24.6929 34.8017 25.5642 33.6222 26.6291 32.2345C28.7188 29.5113 28.6786 29.6084 27.9849 28.9679C27.1651 28.2107 25.1514 26.7328 24.9397 26.7328C24.8046 26.7328 24.2558 27.258 23.6016 28.014ZM24.5512 28.9545C24.3198 29.214 23.6523 30.0087 23.0679 30.7205C22.4836 31.4324 21.0357 33.1749 19.8506 34.5925C18.6653 36.0103 17.6953 37.1984 17.6949 37.2328C17.6946 37.2672 18.1579 37.4315 18.7248 37.5979C21.2509 38.3397 22.7987 38.8715 22.9452 39.048C23.0752 39.2047 23.0302 39.5244 22.6944 40.8297C22.4693 41.7045 22.2548 42.4998 22.2178 42.597C22.0809 42.9564 22.4687 42.5623 23.9669 40.8195C24.8058 39.8437 25.8231 38.6869 26.2274 38.2489C26.6318 37.8109 26.9161 37.406 26.8591 37.3492C26.8021 37.2924 26.0242 36.9673 25.1304 36.6268C24.2367 36.2864 23.4049 35.9673 23.2821 35.9177C22.9213 35.772 22.6881 35.2143 22.8608 34.9103C22.9403 34.7703 23.8351 33.5794 24.8492 32.264C25.8633 30.9487 26.6929 29.8219 26.6929 29.7602C26.6929 29.6299 25.2466 28.4828 25.0823 28.4828C25.0217 28.4828 24.7827 28.695 24.5512 28.9545Z" fill="white"/>
</svg>
