<svg width="58" height="52" viewBox="0 0 58 52" fill="none" xmlns="http://www.w3.org/2000/svg">
<path fill-rule="evenodd" clip-rule="evenodd" d="M13.4369 0.0601629C11.7351 0.268788 10.4938 0.878038 9.26477 2.10804C6.28402 5.09116 6.44639 9.88304 9.62114 12.6229C11.126 13.9218 13.586 14.5629 15.6046 14.1825C16.3891 14.0347 17.8995 13.3474 18.5094 12.8608L18.9335 12.5224L18.87 10.634C18.83 9.44329 18.8594 8.49916 18.9496 8.07866C19.1474 7.15654 19.7658 5.71354 20.352 4.80666L20.8433 4.04641L20.5005 3.45916C20.0048 2.61016 18.6468 1.30954 17.7779 0.851787C16.4065 0.129162 14.9864 -0.129837 13.4369 0.0601629ZM41.8885 0.315788C41.4681 0.449038 40.8494 0.708788 40.5135 0.893038C39.7831 1.29366 38.0011 3.06404 37.6601 3.72791C37.4271 4.18154 37.4261 4.21416 37.6371 4.53629C38.1333 5.29366 38.8271 6.93041 39.0248 7.80941C39.1833 8.51429 39.2256 9.19329 39.1955 10.5458L39.1555 12.3448L39.7019 12.7642C42.3169 14.7717 45.7668 14.7848 48.4956 12.7977C49.737 11.8937 50.6871 10.4925 51.1586 8.87054C51.4503 7.86741 51.3508 5.79779 50.9634 4.80941C50.115 2.64491 48.3421 0.956413 46.2335 0.304913C45.1411 -0.0327121 42.9704 -0.0272118 41.8885 0.315788ZM27.4654 3.12941C24.3728 3.79604 22.0509 6.54329 21.8724 9.74691C21.7109 12.6458 23.3163 15.3572 25.92 16.5835C28.3351 17.7209 31.1773 17.4248 33.372 15.8073C36.104 13.7938 36.9763 10.1038 35.4606 6.97229C34.0229 4.00191 30.7393 2.42379 27.4654 3.12941ZM37.2206 16.5282C36.8691 17.0609 36.579 17.5505 36.5758 17.6162C36.5726 17.6817 36.9544 17.8842 37.424 18.0659C41.8638 19.7852 42.1341 19.9423 43.1089 21.3719C43.4613 21.8887 43.8379 22.6563 44.0289 23.2469L44.3523 24.2469L44.3151 31.5594C44.278 38.8504 44.277 38.8734 43.9986 39.4032L43.7194 39.9344H50.7834H57.8474L57.8126 31.8407L57.7779 23.7469L57.4925 23.0412C56.7918 21.3079 55.5671 20.0122 54.0295 19.3768C53.6161 19.2059 52.1269 18.6114 50.72 18.0557L48.1621 17.0452L47.0325 17.3785C45.3268 17.882 43.6536 17.9254 42.0378 17.5082C40.6355 17.1462 39.4574 16.6317 38.5695 15.9938C38.2369 15.7549 37.9411 15.5594 37.9123 15.5594C37.8834 15.5594 37.5721 15.9954 37.2206 16.5282ZM19.8006 16.0057C18.9369 16.5925 17.2903 17.3075 16.3404 17.5082C14.9515 17.8013 12.3226 17.6997 11.1739 17.3084L10.3198 17.0175L7.86139 17.9909C6.50914 18.5263 4.93589 19.1814 4.36514 19.4468C3.04664 20.0597 2.03427 20.9993 1.40752 22.192C0.608768 23.712 0.595018 23.884 0.592518 32.3407L0.590393 39.9344H7.02364H13.457L13.1799 39.4657C12.904 38.9988 12.9028 38.968 12.8659 31.9969C12.841 27.2685 12.874 24.735 12.9679 24.1898C13.2521 22.5373 14.3884 20.693 15.6256 19.8758C16.2339 19.474 16.7591 19.2505 20.0279 18.0022C20.7154 17.7395 21.3264 17.4812 21.3858 17.4279C21.4661 17.3558 20.4214 15.6844 20.2959 15.6844C20.2835 15.6844 20.0606 15.829 19.8006 16.0057ZM21.9025 20.2099C20.6653 20.6827 19.1363 21.2669 18.5048 21.5084C17.2219 21.999 16.5454 22.5569 16.0881 23.5014C15.6674 24.3707 15.5753 26.1187 15.6158 32.4549C15.6563 38.7744 15.6195 38.4524 16.3993 39.3275C16.8831 39.8705 17.4326 40.0663 18.2131 39.9739L18.864 39.8968L18.8298 35.8218C18.809 33.3549 18.8413 31.7579 18.9116 31.7749C18.9756 31.7903 19.281 31.8943 19.5904 32.006C20.9503 32.4974 23.0989 31.7282 24.8209 30.1335L25.4029 29.5944L26.8404 29.498C28.4309 29.3914 28.5428 29.3907 30.5758 29.4744L31.9986 29.533L32.7008 30.1457C34.3674 31.5998 35.4359 32.0977 36.9029 32.1039C37.7266 32.1074 38.0369 32.0175 39.1216 31.4617C39.1733 31.4352 39.2154 33.3589 39.2154 35.7365C39.2154 39.8197 39.2279 40.0594 39.4409 40.0594C39.8773 40.0594 40.8123 39.3393 41.1731 38.7254L41.5279 38.1219L41.4869 31.1844C41.4461 24.2895 41.4441 24.243 41.1631 23.6219C40.5401 22.2448 40.0508 21.9377 36.1731 20.4898L33.5685 19.5173L32.6731 19.808C31.2045 20.285 30.3524 20.4254 28.9029 20.4292C27.3943 20.433 25.9933 20.1647 24.8258 19.6484L24.1521 19.3504L21.9025 20.2099ZM22.848 24.5805C22.7245 24.6265 22.4505 25.0203 22.2393 25.4555C22.028 25.8908 21.7815 26.3334 21.6915 26.439C21.3531 26.8363 20.7233 27.1854 20.106 27.3178C19.0448 27.5453 18.6869 28.2885 19.2186 29.1607C19.5276 29.6675 20.1719 29.9605 20.7389 29.852C21.7461 29.6593 23.3501 28.596 23.9375 27.7317L24.2244 27.3094H25.5168C27.1573 27.3094 27.5094 27.2353 27.9859 26.7902C28.329 26.4698 28.3649 26.3714 28.304 25.9178C28.2208 25.2969 27.7059 24.7137 27.1623 24.6244C26.5484 24.5238 23.095 24.4885 22.848 24.5805ZM31.7779 24.5513C29.8578 24.6288 29.5975 24.716 29.2779 25.3897C29.0225 25.9277 29.042 26.2142 29.3614 26.6202C29.7891 27.164 30.3046 27.3094 31.8058 27.3094H33.154L33.5799 27.8407C34.5495 29.0503 35.8858 29.8094 37.0451 29.8094C37.527 29.8094 37.6813 29.7435 38.0404 29.3844C38.4916 28.9332 38.579 28.5064 38.32 28.0199C38.1014 27.6097 37.8594 27.4629 36.9371 27.1818C36.0098 26.8992 35.6834 26.584 35.21 25.5139C34.9214 24.8613 34.3503 24.421 33.8404 24.458C33.6685 24.4705 32.7404 24.5124 31.7779 24.5513ZM26.5279 32.4452C25.9091 32.511 24.531 32.6628 23.4654 32.7823L21.5279 32.9995L21.4934 37.4357C21.4744 39.8774 21.5134 42.227 21.5803 42.6619C21.8074 44.1413 21.8281 44.168 26.1413 48.5387C27.3851 49.799 28.5065 50.8867 28.6333 50.9555C28.76 51.0243 28.9919 51.0485 29.1485 51.0092C29.3053 50.9698 30.8141 49.5318 32.5015 47.8135C34.9129 45.3582 35.6453 44.5352 35.9236 43.9682L36.2779 43.2469L36.3144 38.1598L36.3509 33.0727L35.9394 33.0035C35.713 32.9655 34.6841 32.8484 33.6529 32.7432C32.6216 32.6379 31.6091 32.5259 31.4029 32.4942C30.5529 32.3634 27.5763 32.3335 26.5279 32.4452ZM30.9029 36.2383C30.6966 36.3313 29.3606 37.5837 27.9341 39.0214L25.3404 41.6355V42.2155C25.3404 43.0247 25.7079 43.436 26.5115 43.5267L27.1118 43.5943L29.9136 40.7925C32.5504 38.1558 32.7154 37.9637 32.7154 37.5309C32.7154 36.9179 32.5189 36.5199 32.0916 36.2675C31.6708 36.0189 31.404 36.0123 30.9029 36.2383Z" fill="white"/>
</svg>
