<svg width="56" height="60" viewBox="0 0 56 60" fill="none" xmlns="http://www.w3.org/2000/svg">
<path fill-rule="evenodd" clip-rule="evenodd" d="M4.66927 0.0897657C3.46527 0.260516 1.83327 1.42914 1.27339 2.52139C0.806269 3.43277 0.792644 3.90427 0.832019 17.8223L0.870394 31.3848L1.24039 32.1149C1.70702 33.036 2.71189 33.965 3.65202 34.3446L4.37039 34.6348L12.9016 34.6701C20.8665 34.7031 21.433 34.7198 21.4339 34.9201C21.4349 35.115 20.6676 39.0854 20.6124 39.1714C20.5994 39.1915 17.5739 39.2046 13.8888 39.2006C7.31427 39.1934 7.17827 39.1981 6.62477 39.4583C4.81889 40.3071 4.55489 42.6754 6.16152 43.6138C6.56352 43.8485 6.97089 43.8575 19.036 43.8973C25.8886 43.9198 34.7713 43.9709 38.7751 44.0108C44.333 44.066 46.1756 44.047 46.5656 43.9301C47.1936 43.742 48.0175 42.8523 48.1328 42.2378C48.3465 41.0985 47.9378 40.1559 47.0161 39.6631C46.5003 39.3874 46.4311 39.3841 39.6276 39.3223L32.76 39.2598L32.5951 38.3848C32.5044 37.9035 32.349 37.0598 32.2498 36.5098C32.1505 35.9598 32.0321 35.3299 31.9868 35.1099L31.9043 34.7101L40.4498 34.6724L48.9954 34.6348L49.7048 34.3023C50.5559 33.9033 51.4014 33.1505 51.9383 32.3139C52.2609 31.8113 52.3504 31.512 52.4314 30.6671C52.5811 29.1034 52.442 3.72927 52.2806 3.19727C51.936 2.06052 50.8955 0.959141 49.5864 0.345391L48.8704 0.00976562H27.0519C15.0516 0.00976562 4.97952 0.0457657 4.66927 0.0897657ZM5.61002 4.68689C5.58139 4.71552 5.55789 10.43 5.55789 17.3858V30.0326L26.5885 30.1051C38.1554 30.145 47.6261 30.168 47.6345 30.1563C47.643 30.1444 47.6715 24.3973 47.6976 17.3848L47.7454 4.63477H26.7038C15.1309 4.63477 5.63864 4.65827 5.61002 4.68689ZM50.7313 42.416C50.4785 43.2203 49.987 44.226 49.5859 44.7598C48.9528 45.6021 47.7963 46.3649 46.8704 46.5509C46.3374 46.6579 42.115 46.6973 31.1758 46.6973H16.2104L16.1228 49.2285C16.0746 50.6206 16.0544 53.0816 16.0778 54.6973C16.1268 58.0771 16.1829 58.2851 17.181 58.791L17.7359 59.0723H35.9824C54.1086 59.0723 54.2324 59.0706 54.7571 58.8166C55.6881 58.3659 55.6678 58.5449 55.6903 50.6503C55.709 44.029 55.6988 43.68 55.4704 43.231C55.3114 42.9181 55.0459 42.6653 54.6804 42.4785C54.191 42.2285 53.9451 42.1973 52.465 42.1973C50.9889 42.1973 50.7923 42.222 50.7313 42.416Z" fill="white"/>
</svg>
