<svg width="56" height="52" viewBox="0 0 56 52" fill="none" xmlns="http://www.w3.org/2000/svg">
<path fill-rule="evenodd" clip-rule="evenodd" d="M23.8881 0.0386277C20.5456 0.530503 19.2313 0.844253 17.129 1.65225C13.918 2.88663 11.305 4.56313 8.66739 7.08138C4.85514 10.721 2.33864 15.1161 1.14964 20.211C0.669893 22.2669 0.532143 23.905 0.611393 26.6113C0.737643 30.9228 1.49152 33.9244 3.38339 37.6485C4.68052 40.202 5.88814 41.8835 7.94552 44.001C12.9708 49.173 19.3113 51.8661 26.4506 51.8611C30.2173 51.8585 33.2989 51.2845 36.6381 49.9635C38.4866 49.2321 41.1804 47.6818 42.3881 46.654L42.7631 46.3349L38.7631 46.376L34.7631 46.417L33.1096 46.93C26.8848 48.8609 19.8611 47.9263 14.5941 44.4661C8.78802 40.6517 5.28827 34.7596 4.56789 27.586C4.40039 25.918 4.48689 24.1518 4.83677 22.0923C5.93152 15.6485 10.0273 9.87025 15.7738 6.6625C20.4791 4.03588 25.8321 3.2395 31.3504 4.34525C32.0171 4.47875 33.4421 4.89625 34.5169 5.27288L36.4711 5.95763L39.8671 5.86563L43.2631 5.7735L41.9506 4.82288C38.7243 2.48625 35.6331 1.1615 31.4505 0.322878C30.3893 0.110128 29.576 0.052503 27.2006 0.021628C25.585 0.000627986 24.0944 0.00825271 23.8881 0.0386277ZM22.5131 5.984C17.328 7.251 13.8786 9.34338 10.8406 13.0649C8.81189 15.55 7.30852 18.6679 6.70564 21.6403C6.40502 23.1231 6.28264 24.2538 6.38727 24.5834C6.46689 24.834 6.50239 24.8201 7.03114 24.3328C7.74214 23.6774 8.26527 23.461 9.13914 23.461C9.92339 23.461 10.5728 23.7368 11.0989 24.2933C11.5439 24.7639 11.7006 25.213 11.7006 26.0164C11.7006 26.8901 11.4465 27.463 10.822 27.9976C9.48089 29.1456 7.71552 28.7539 6.71427 27.086L6.45152 26.6485L6.45114 27.7285C6.45052 29.0725 6.70252 30.4274 7.27777 32.173C8.37539 35.5045 9.87514 37.9108 12.4434 40.461C14.5925 42.595 16.9608 44.0914 19.7396 45.0711C20.9478 45.497 23.2683 46.0113 23.4568 45.8948C23.5221 45.8544 23.5756 45.691 23.5756 45.5318C23.5756 44.1343 24.8306 42.961 26.3256 42.961C27.8654 42.961 29.0723 44.1546 29.0749 45.6798C29.0753 45.9033 29.1178 46.0851 29.1694 46.0841C29.4441 46.0785 31.274 45.5626 31.374 45.4626C31.4471 45.3895 31.361 45.2958 31.1459 45.2139C29.8904 44.7366 28.414 43.1995 27.6346 41.5584C26.9125 40.0378 26.8349 39.2924 26.83 33.8264L26.8256 29.0044L26.0279 28.9923C24.2765 28.9656 22.9521 27.7405 22.9511 26.1463L22.9506 25.3939L18.9819 23.0946C13.7169 20.0444 13.5048 19.9034 13.2611 19.2945C13.0014 18.6454 13.1146 18.1875 13.6513 17.7163C14.2686 17.1741 14.8511 17.1991 15.9966 17.8165C16.9715 18.342 21.736 21.1034 23.4851 22.1566C24.6549 22.861 24.7915 22.8834 26.4194 22.6364L26.8256 22.5746L26.8266 18.0491C26.8271 15.4861 26.8845 13.1721 26.959 12.7133C27.3515 10.2935 29.1638 7.91963 31.4651 6.81025C31.9349 6.58375 32.3208 6.36275 32.3225 6.31913C32.3254 6.24675 31.3829 6.08888 29.7631 5.89075L29.1381 5.81425L28.9249 6.54388C28.522 7.92275 27.5151 8.711 26.1571 8.711C25.7641 8.711 25.2616 8.63525 25.0404 8.54263C24.2868 8.22713 23.6221 7.27863 23.2533 5.99225C23.2028 5.81625 23.2 5.81613 22.5131 5.984ZM33.1304 7.966C32.2216 8.25338 31.0285 9.00163 30.3281 9.72325C30.0471 10.0129 29.552 10.7841 29.2278 11.4371L28.6381 12.6245L28.5581 19.6365C28.4076 32.8468 28.4294 37.8064 28.6434 39.0338C29.0679 41.4676 30.4498 43.1649 32.7664 44.0978L33.5131 44.3985L41.502 44.4358C46.7668 44.4604 49.7001 44.4283 50.1048 44.3414C52.335 43.8631 54.3923 41.7281 54.891 39.3741C55.041 38.6666 55.0716 36.4511 55.0735 26.2028C55.0749 17.8466 55.0319 13.6433 54.9395 13.1403C54.4675 10.5679 52.4276 8.33638 50.1043 7.85038C49.6626 7.758 46.8799 7.71475 41.6668 7.71938C34.3579 7.72588 33.8424 7.74075 33.1304 7.966ZM34.3718 11.4945C33.6666 11.6411 33.1086 12.0479 32.7308 12.6906L32.3881 13.2735L32.3531 23.0171C32.3285 29.8814 32.3599 32.9611 32.459 33.4388C32.631 34.2674 33.3585 35.07 34.1526 35.3073C34.8318 35.5101 48.6454 35.527 49.37 35.3259C49.635 35.2523 50.096 34.967 50.3944 34.6919C51.3754 33.7876 51.336 34.2881 51.2974 23.2011L51.2631 13.3985L50.9855 12.8794C50.6441 12.241 49.8976 11.6074 49.3914 11.5261C48.7443 11.4224 34.8594 11.393 34.3718 11.4945ZM41.3881 13.6375C41.1819 13.7291 40.8938 13.9379 40.7479 14.1014C40.4895 14.391 40.4809 14.5291 40.4101 19.5346C40.3439 24.2138 40.3564 24.7079 40.5503 25.0883C40.8859 25.7465 41.2959 25.9569 43.4729 26.5874C44.595 26.9124 46.2074 27.3825 47.0558 27.6321C48.8014 28.1458 48.943 28.161 49.4624 27.8924C50.2089 27.5064 50.5198 26.574 50.1443 25.8479C49.9056 25.3864 49.3281 25.1525 46.2319 24.2629L43.7006 23.5356V19.2151C43.7006 14.2744 43.6971 14.2555 42.6961 13.7423C42.0674 13.4199 41.9068 13.407 41.3881 13.6375ZM40.0423 38.6798C39.5899 39.1818 39.6233 40.2628 40.105 40.7115C40.34 40.9305 40.5465 40.961 41.7949 40.961C42.5771 40.961 43.3214 40.9051 43.4489 40.837C43.7759 40.662 43.9744 39.9664 43.875 39.3444C43.7404 38.5024 43.645 38.461 41.8361 38.461C40.4739 38.461 40.2104 38.4931 40.0423 38.6798Z" fill="white"/>
</svg>
